<?xml version="1.0" encoding="utf-8"?>
<!-- Generator: Adobe Illustrator 24.1.2, SVG Export Plug-In . SVG Version: 6.00 Build 0)  -->
<svg version="1.1"
	 id="Layer_1" xmlns:cc="http://creativecommons.org/ns#" xmlns:dc="http://purl.org/dc/elements/1.1/" xmlns:inkscape="http://www.inkscape.org/namespaces/inkscape" xmlns:rdf="http://www.w3.org/1999/02/22-rdf-syntax-ns#" xmlns:sodipodi="http://sodipodi.sourceforge.net/DTD/sodipodi-0.dtd" xmlns:svg="http://www.w3.org/2000/svg"
	 xmlns="http://www.w3.org/2000/svg" xmlns:xlink="http://www.w3.org/1999/xlink" x="0px" y="0px" viewBox="0 0 10 10.2"
	 style="enable-background:new 0 0 10 10.2;" xml:space="preserve">
<path d="M6.8,2.9l0.1,0.7L5.1,5.4C5.1,5.4,5,5.5,5,5.6c0,0.1,0,0.2,0.1,0.2c0.1,0.1,0.2,0.1,0.2,0.1c0.1,0,0.2,0,0.2-0.1l1.7-1.7
	L8,4.2c0.1,0,0.2,0,0.3-0.1l1.4-1.4c0.1-0.1,0.1-0.3,0-0.5C9.7,2.1,9.6,2,9.6,2L9,2L8.9,1.4c0-0.2-0.2-0.3-0.3-0.3h0
	c-0.1,0-0.2,0-0.2,0.1L6.9,2.7C6.8,2.7,6.8,2.8,6.8,2.9z M7.5,3l0.8-0.8l0,0.1c0,0.2,0.1,0.3,0.3,0.3l0.1,0L7.9,3.5l-0.4,0L7.5,3z
	 M6,3.3c-0.8-0.2-1.7,0-2.3,0.6c-0.9,0.9-0.9,2.4,0,3.4C4.1,7.7,4.7,8,5.4,8C6,8,6.6,7.7,7.1,7.3C7.7,6.7,7.9,5.8,7.7,5c0,0,0,0,0,0
	c0-0.2,0.1-0.4,0.3-0.4c0.2,0,0.4,0.1,0.4,0.3c0.3,1,0,2.2-0.8,2.9C7,8.4,6.2,8.7,5.4,8.7c-0.8,0-1.6-0.3-2.2-0.9S2.3,6.4,2.3,5.6
	c0-0.8,0.3-1.6,0.9-2.2c0.6-0.6,1.3-0.9,2.1-0.9c0,0,0,0,0,0c0.3,0,0.5,0,0.8,0.1c0,0,0,0,0,0c0.2,0.1,0.3,0.2,0.2,0.4
	C6.3,3.2,6.2,3.3,6,3.3z M8.6,8.8c-0.9,0.9-2,1.3-3.2,1.3S3,9.7,2.1,8.8C1.3,8,0.8,6.8,0.8,5.6c0-1.2,0.5-2.4,1.3-3.2
	c0.6-0.6,1.3-1,2.1-1.2C4.7,1.1,5.1,1,5.5,1c0.4,0,0.8,0.1,1.2,0.2c0,0,0,0,0,0c0.1,0,0.2,0.1,0.2,0.2c0,0.1,0,0.2,0,0.3
	C6.9,1.8,6.7,1.9,6.5,1.9c-1.4-0.4-2.9,0-3.9,1C1.9,3.6,1.5,4.6,1.5,5.6c0,1,0.4,2,1.1,2.8c1.5,1.5,4,1.5,5.5,0c1-1,1.4-2.5,1-3.9
	c0,0,0,0,0,0c0-0.1,0-0.2,0-0.3c0-0.1,0.1-0.1,0.2-0.2c0.1,0,0.2,0,0.3,0c0.1,0,0.1,0.1,0.2,0.2C10.2,5.9,9.8,7.6,8.6,8.8z M2.4,1.2
	c0,0.2-0.1,0.3-0.3,0.3H1.5v0.6c0,0.2-0.1,0.3-0.3,0.3C1,2.4,0.9,2.3,0.9,2.1V1.5H0.3C0.1,1.5,0,1.3,0,1.2C0,1,0.1,0.9,0.3,0.9h0.6
	V0.3C0.9,0.1,1,0,1.2,0c0.2,0,0.3,0.1,0.3,0.3v0.6h0.6C2.3,0.9,2.4,1,2.4,1.2z M5.4,4.2c-0.4,0-0.7,0.2-1,0.4c-0.5,0.5-0.5,1.4,0,2
	s1.4,0.5,2,0c0.3-0.3,0.4-0.7,0.4-1.1c0-0.1-0.1-0.3-0.3-0.3c-0.1,0-0.3,0.1-0.3,0.3c0,0,0,0,0,0C6.3,5.8,6.2,6,6,6.2
	c-0.3,0.3-0.9,0.3-1.2,0C4.4,5.9,4.4,5.3,4.8,5c0.2-0.2,0.4-0.3,0.7-0.3c0.1,0,0.3-0.1,0.3-0.2S5.7,4.2,5.5,4.2c0,0,0,0,0,0
	C5.5,4.2,5.4,4.2,5.4,4.2L5.4,4.2z"/>
</svg>
