<svg xmlns:dc="http://purl.org/dc/elements/1.1/" xmlns:cc="http://creativecommons.org/ns#" xmlns:rdf="http://www.w3.org/1999/02/22-rdf-syntax-ns#" xmlns:svg="http://www.w3.org/2000/svg" xmlns="http://www.w3.org/2000/svg" xmlns:sodipodi="http://sodipodi.sourceforge.net/DTD/sodipodi-0.dtd" xmlns:inkscape="http://www.inkscape.org/namespaces/inkscape" viewBox="0 0 10.583333 13.2291675" version="1.1" x="0px" y="0px"><svg:g><svg:path style="color:#000000;font-style:normal;font-variant:normal;font-weight:normal;font-stretch:normal;font-size:medium;line-height:normal;font-family:sans-serif;font-variant-ligatures:normal;font-variant-position:normal;font-variant-caps:normal;font-variant-numeric:normal;font-variant-alternates:normal;font-feature-settings:normal;text-indent:0;text-align:start;text-decoration:none;text-decoration-line:none;text-decoration-style:solid;text-decoration-color:#000000;letter-spacing:normal;word-spacing:normal;text-transform:none;writing-mode:lr-tb;direction:ltr;text-orientation:mixed;dominant-baseline:auto;baseline-shift:baseline;text-anchor:start;white-space:normal;shape-padding:0;clip-rule:nonzero;display:inline;overflow:visible;visibility:visible;opacity:1;isolation:auto;mix-blend-mode:normal;color-interpolation:sRGB;color-interpolation-filters:linearRGB;solid-color:#000000;solid-opacity:1;vector-effect:none;fill:#000000;fill-opacity:1;fill-rule:nonzero;stroke:none;stroke-width:0.52916664;stroke-linecap:round;stroke-linejoin:miter;stroke-miterlimit:4;stroke-dasharray:none;stroke-dashoffset:0;stroke-opacity:1;color-rendering:auto;image-rendering:auto;shape-rendering:auto;text-rendering:auto;enable-background:accumulate" d="m 5.3926565,0.79514994 c -0.4036298,-0.0092 -0.8050953,0.03614 -1.1937259,0.133325 C 3.4216721,1.1228529 2.6963381,1.5246649 2.1091351,2.1118659 c -1.75481985,1.754819 -1.75481985,4.606548 0,6.361368 1.7548198,1.7548201 4.6086183,1.7548201 6.3634354,0 1.1744722,-1.174469 1.6063855,-2.90113 1.1229314,-4.490164 A 0.26536843,0.26536843 0 1 0 9.088039,4.1370649 c 0.4268682,1.403033 0.046355,2.92607 -0.990637,3.963064 -1.5526015,1.552599 -4.0604969,1.552599 -5.6130957,0 -1.55259878,-1.552598 -1.55259878,-4.06256 0,-5.61516 1.0369365,-1.036936 2.5580207,-1.416882 3.9609977,-0.99012 A 0.26460979,0.26460979 0 1 0 6.599302,0.98893694 c -0.3972427,-0.120834 -0.8030156,-0.184561 -1.2066455,-0.193787 z m 3.112987,0.08837 a 0.26460979,0.26460979 0 0 0 -0.1777656,0.07803 L 6.8768023,2.4105569 a 0.26460979,0.26460979 0 0 0 -0.075962,0.214974 l 0.074411,0.708484 -1.769917,1.769919 a 0.26460981,0.26460981 0 1 0 0.3751712,0.373102 l 1.7683665,-1.768366 0.7100359,0.07286 a 0.26460979,0.26460979 0 0 0 0.2149739,-0.07596 l 1.4490071,-1.44901 A 0.26460979,0.26460979 0 0 0 9.4626916,1.8054239 l -0.621149,-0.0646 -0.06408,-0.621151 A 0.26460979,0.26460979 0 0 0 8.5056435,0.88351694 Z m -0.197403,0.84335896 0.029456,0.283187 a 0.26460979,0.26460979 0 0 0 0.2366778,0.234611 l 0.2811198,0.02946 -0.9668669,0.968416 -0.4960937,-0.05064 -0.050641,-0.496094 z m -3.0380569,0.573092 c -0.7765389,0.0054 -1.5332551,0.313177 -2.0965134,0.876432 -1.1666802,1.16668 -1.1666802,3.065619 0,4.232299 1.1666802,1.166683 3.0656212,1.166683 4.2322988,0 0.7508796,-0.750877 1.0494327,-1.843638 0.781349,-2.871142 a 0.26460979,0.26460979 0 1 0 -0.5115957,0.132808 c 0.2208741,0.846576 -0.024199,1.746575 -0.6428555,2.365232 -0.9644618,0.964459 -2.5195662,0.964459 -3.4840253,0 -0.9644592,-0.964462 -0.9644592,-2.520082 0,-3.484542 0.6187678,-0.61877 1.5185416,-0.863407 2.3652294,-0.642339 a 0.26460979,0.26460979 0 1 0 0.1328103,-0.511597 c -0.2569105,-0.06708 -0.5178531,-0.09896 -0.7766976,-0.09715 z m 5.159e-4,1.582333 c -0.3650588,0.005 -0.7167457,0.151923 -0.9777174,0.412895 -0.5483357,0.548333 -0.5483357,1.445855 0,1.994191 0.5483357,0.548336 1.4458579,0.548336 1.9941936,0 0.2982516,-0.298251 0.4474131,-0.715039 0.4061751,-1.134814 a 0.26460974,0.26460974 0 1 0 -0.5255471,0.05271 c 0.025789,0.262503 -0.067217,0.520938 -0.2537328,0.70745 -0.3461147,0.346115 -0.9003189,0.346115 -1.2464335,0 -0.3461147,-0.346114 -0.3461147,-0.898255 0,-1.244369 0.18651,-0.18651 0.4464949,-0.279517 0.7089986,-0.25373 a 0.26504577,0.26504577 0 1 0 0.05116,-0.527617 c -0.052472,-0.0052 -0.1049444,-0.0074 -0.1570964,-0.0067 z"/></svg:g><text x="0" y="25.583334" fill="#000000" font-size="5px" font-weight="bold" font-family="'Helvetica Neue', Helvetica, Arial-Unicode, Arial, Sans-serif">Created by Alzam</text><text x="0" y="30.583334" fill="#000000" font-size="5px" font-weight="bold" font-family="'Helvetica Neue', Helvetica, Arial-Unicode, Arial, Sans-serif">from the Noun Project</text></svg>